<svg width="190" height="120" viewBox="0 0 190 120" fill="none" xmlns="http://www.w3.org/2000/svg">
<g clip-path="url(#clip0_247_567)">
<mask id="mask0_247_567" style="mask-type:luminance" maskUnits="userSpaceOnUse" x="15" y="29" width="161" height="62">
<path d="M176 29H15V90.6642H176V29Z" fill="white"/>
</mask>
<g mask="url(#mask0_247_567)">
<path d="M176 29H15V90.6642H176V29Z" fill="#FCAF26"/>
<path d="M26.2921 38.1421H164.708C165.79 38.1421 166.669 39.0035 166.669 40.0628V79.6019C166.669 80.6612 165.79 81.5226 164.708 81.5226H26.2921C25.2108 81.5226 24.3315 80.6612 24.3315 79.6019V40.0628C24.3315 39.0035 25.2108 38.1421 26.2921 38.1421Z" fill="#231F20"/>
<path d="M61.2914 74.3546C58.9017 76.6008 55.3676 77.1119 50.1634 77.1119H42.763C32.4007 77.1119 29.1064 74.7256 29.1064 66.4945V62.0061H39.0396C39.0396 62.4264 38.9934 62.8469 38.9934 63.222C38.9934 67.3354 40.0451 68.6461 44.1976 68.6461H48.9728C52.7929 68.6461 53.4618 67.2447 53.4618 63.8279V42.7373H64.0638V67.1499C64.0638 70.0969 62.9658 72.7636 61.2955 74.3505" fill="white"/>
<path d="M102.749 54.6654C102.749 51.9534 100.982 50.8322 97.1617 50.8322H88.6633C81.7846 50.8322 80.1143 51.7226 80.1143 57.5217V62.2451C80.1143 67.5785 82.4535 68.6502 88.6633 68.6502H94.8226C100.696 68.6502 103.035 68.0443 103.035 63.9721V63.597H113.78C113.826 64.4873 113.877 65.2827 113.877 66.0741C113.877 70.2824 112.875 73.0892 110.389 74.8656C107.764 76.7822 103.607 77.1573 97.5403 77.1573H85.6971C80.2068 77.1573 76.3363 76.9223 73.328 74.6306C70.4168 72.3844 69.3145 69.3014 69.3145 64.6687V55.4114C69.3145 45.2144 73.8497 42.3169 85.693 42.3169H97.5362C103.603 42.3169 107.709 42.5972 110.242 44.5138C112.484 46.1954 113.439 49.0022 113.439 53.0703C113.439 53.6803 113.439 54.3316 113.393 54.9869H102.745V54.6571L102.749 54.6654Z" fill="white"/>
<path d="M118.454 76.7412V42.7417H149.735C157.517 42.7417 161.292 45.8288 161.292 52.2339C161.292 55.8816 159.667 58.1278 156.184 59.4344C160.576 60.135 162.486 62.6617 162.486 67.5252C162.486 74.0704 159.049 76.7371 151.358 76.7371H118.454V76.7412ZM150.399 53.1695C150.399 51.4878 149.301 50.3627 147.677 50.3627H129.052V55.9722H147.677C149.444 55.9722 150.399 54.9912 150.399 53.1653M151.547 65.893C151.547 64.0712 150.399 62.9007 148.636 62.9007H129.056V69.0254H148.636C150.496 69.0254 151.547 67.9044 151.547 65.893Z" fill="white"/>
<path d="M43.348 42.7456H29.0771V56.7222H43.348V42.7456Z" fill="#FCAF26"/>
<path fill-rule="evenodd" clip-rule="evenodd" d="M39.5023 49.7277C39.5023 49.7277 39.7379 49.7195 39.801 49.7153C39.8683 49.7112 39.9945 49.7029 40.0703 49.8472C40.0914 49.8843 40.2091 50.2388 40.2217 50.28C40.2386 50.3212 40.2722 50.5149 40.1165 50.5479C40.0871 50.5562 39.8136 50.6055 39.8136 50.6055L39.5023 49.7236V49.7277ZM38.9721 48.0914C38.9721 48.0914 39.2751 48.112 39.3509 48.1202C39.4266 48.1285 39.4771 48.1615 39.5066 48.2233C39.5276 48.2645 39.6411 48.5902 39.6538 48.6272C39.6664 48.6643 39.7253 48.858 39.5569 48.8622C39.5317 48.8622 39.2288 48.8622 39.2288 48.8622L38.9721 48.0914ZM37.8994 47.1558C37.8994 47.1558 39.1783 47.3371 39.2961 47.3536C39.8262 47.4361 40.0576 47.8565 40.125 48.0542C40.146 48.1202 40.2933 48.5778 40.3143 48.6272C40.4615 49.0105 40.0914 49.2125 40.0914 49.2125C40.0914 49.2125 40.512 49.2866 40.6551 49.6205C40.6551 49.6205 40.9201 50.383 40.9496 50.4614C40.9748 50.5397 41.1641 51.1497 40.5162 51.3723C40.4279 51.4011 39.3887 51.6731 39.3887 51.6731L37.9036 47.1599L37.8994 47.1558Z" fill="#231F20"/>
<path d="M32.7332 46.3977L34.8241 46.7068L35.1608 47.8237L34.6727 47.7825C34.6727 47.7825 35.8759 51.558 35.918 51.6734C36.0695 52.0979 36.1621 52.5389 35.5014 52.7532C35.4132 52.7821 34.803 52.9552 34.7274 52.9718C34.3487 53.0583 33.8648 53.0624 33.6755 52.4812L32.9099 50.1483L33.8481 50.0824C33.8481 50.0824 34.2351 51.2819 34.2688 51.3684C34.3529 51.6198 34.4076 51.7146 34.6727 51.6527C34.8704 51.6074 34.862 51.5291 34.8115 51.3643C34.7905 51.2941 33.6588 47.7001 33.6588 47.7001L33.1245 47.6589L32.729 46.3936L32.7332 46.3977Z" fill="#231F20"/>
<path d="M35.8548 46.8426C35.9473 46.859 36.6205 46.9621 36.7341 46.9786C36.8477 46.9951 37.4746 47.0981 37.6387 47.6628C37.6808 47.803 38.0089 48.7963 38.0089 48.7963L37.2137 48.788C37.2137 48.788 37.0665 48.3058 37.0327 48.2234C36.957 48.0214 36.9529 47.9678 36.7131 47.9349C36.4733 47.9059 36.4859 48.0049 36.5364 48.174C36.5658 48.2605 37.2853 50.6056 37.3189 50.7046C37.403 50.9725 37.4241 51.0756 37.6808 51.0302C37.9037 50.9807 37.8616 50.8654 37.8027 50.6675C37.7816 50.6015 37.5544 49.9009 37.5544 49.9009L38.3454 49.8432C38.3454 49.8432 38.7493 51.088 38.7704 51.1456C38.7914 51.2033 38.9597 51.7103 38.4801 51.9246C38.4169 51.9535 38.4169 51.9576 38.3538 51.9782C38.2907 51.9988 37.6513 52.1761 37.5882 52.1926C37.5251 52.209 36.9193 52.3903 36.7215 51.8051C36.7046 51.7474 35.4173 47.6175 35.3457 47.4155C35.228 47.0735 35.3542 46.7808 35.8464 46.8468" fill="#231F20"/>
<path fill-rule="evenodd" clip-rule="evenodd" d="M31.8876 45.7464C32.2789 45.8082 39.1071 46.8963 39.41 46.9458C39.7129 46.9953 40.222 47.0653 40.4365 47.6876C40.4786 47.8072 41.4042 50.5233 41.442 50.6388C41.4799 50.7542 41.7492 51.3765 40.9877 51.6073C40.8741 51.6404 34.4581 53.6023 34.3024 53.6476C34.1469 53.693 33.5409 53.9443 33.2928 53.0829C33.2928 53.0829 31.3322 47.0034 31.2438 46.7273C31.1724 46.5047 31.1176 46.3275 31.105 46.1873C31.0671 45.6886 31.3827 45.6722 31.6436 45.7052C31.7403 45.7176 31.8286 45.734 31.8917 45.7422M31.7109 45.4083C31.8834 45.4331 39.3342 46.6366 39.5236 46.6697C39.7171 46.6985 40.4491 46.7767 40.7437 47.5969C40.7984 47.7536 41.7282 50.4863 41.7702 50.6223C41.9344 51.1293 41.8628 51.6568 41.1854 51.8753C40.9624 51.9495 34.5676 53.9361 34.4876 53.9609C34.3109 54.0145 33.3727 54.4225 33.032 53.3591C33.032 53.3591 30.9619 46.9829 30.8988 46.7933C30.8021 46.4924 30.7432 46.241 30.7432 46.0555C30.7432 45.227 31.5426 45.3919 31.7109 45.4083Z" fill="#231F20"/>
</g>
</g>
<defs>
<clipPath id="clip0_247_567">
<rect width="161" height="62" fill="white" transform="translate(15 29)"/>
</clipPath>
</defs>
</svg>
