<svg width="80" height="80" viewBox="0 0 80 80" fill="none" xmlns="http://www.w3.org/2000/svg">
<path d="M54.3609 21.1719C54.3609 26.3495 50.1636 30.5469 44.9859 30.5469H38.5156V40.2063H29.1406V21.1719H54.3609Z" stroke="white" stroke-width="1.5" stroke-miterlimit="10" stroke-linecap="round" stroke-linejoin="round"/>
<path d="M33.75 40.2063V77.6562H15.4688V2.34375H44.9859C50.1641 2.34375 54.3609 6.54063 54.3609 11.7188H33.75V21.1719" stroke="white" stroke-width="1.5" stroke-miterlimit="10" stroke-linecap="round" stroke-linejoin="round"/>
<path d="M15 10.1562H2.34375" stroke="white" stroke-width="1.5" stroke-miterlimit="10" stroke-linecap="round" stroke-linejoin="round"/>
<path d="M15 24.2188H2.34375" stroke="white" stroke-width="1.5" stroke-miterlimit="10" stroke-linecap="round" stroke-linejoin="round"/>
<path d="M33.75 58.9062H27.9688" stroke="white" stroke-width="1.5" stroke-miterlimit="10" stroke-linecap="round" stroke-linejoin="round"/>
<path d="M33.75 49.5312H27.9688" stroke="white" stroke-width="1.5" stroke-miterlimit="10" stroke-linecap="round" stroke-linejoin="round"/>
<path d="M33.75 68.2812H27.9688" stroke="white" stroke-width="1.5" stroke-miterlimit="10" stroke-linecap="round" stroke-linejoin="round"/>
<path d="M54.1373 60.7227L58.6664 65.2517L66.4181 57.5" stroke="white" stroke-width="1.5" stroke-miterlimit="10" stroke-linecap="round" stroke-linejoin="round"/>
<path d="M60.4688 77.6562C69.9611 77.6562 77.6562 69.9611 77.6562 60.4688C77.6562 50.9764 69.9611 43.2812 60.4688 43.2812C50.9764 43.2812 43.2812 50.9764 43.2812 60.4688C43.2812 69.9611 50.9764 77.6562 60.4688 77.6562Z" stroke="white" stroke-width="1.5" stroke-miterlimit="10" stroke-linecap="round" stroke-linejoin="round"/>
</svg>
